<svg xmlns="http://www.w3.org/2000/svg" width="167.667" height="119.468" viewBox="0 0 167.667 119.468">
  <g id="Sepultura_Mesa_de_trabajo_1" data-name="Sepultura_Mesa de trabajo 1" transform="translate(-1.55 -18.556)">
    <g id="Grupo_558" data-name="Grupo 558" transform="translate(1.55 80.967)">
      <path id="Trazado_229" data-name="Trazado 229" d="M167.644,114.538H3.194a1.573,1.573,0,0,1-1.43-.858,1.549,1.549,0,0,1,0-1.573L30.65,62.915a1.706,1.706,0,0,1,1.287-.715H138.758a1.5,1.5,0,0,1,1.287.715l28.886,49.192a1.549,1.549,0,0,1,0,1.573A1.251,1.251,0,0,1,167.644,114.538ZM5.911,111.392H164.927L137.9,65.346H32.938Z" transform="translate(-1.55 -62.2)" fill="#00ac4e"/>
    </g>
    <g id="Grupo_559" data-name="Grupo 559" transform="translate(124.15 39.475)">
      <path id="Trazado_230" data-name="Trazado 230" d="M88.88,77.107h-.286a1.478,1.478,0,0,1-1.287-1.716c3.432-24.31,1.43-40.326,1.43-40.469a1.579,1.579,0,0,1,3.146-.286c.143.715,2,16.588-1.43,41.327A1.584,1.584,0,0,1,88.88,77.107Z" transform="translate(-87.285 -33.185)" fill="#00ac4e"/>
    </g>
    <g id="Grupo_560" data-name="Grupo 560" transform="translate(118.595 21.166)">
      <path id="Trazado_231" data-name="Trazado 231" d="M91.837,41A8.452,8.452,0,0,1,83.4,32.563V24.269a6.4,6.4,0,0,1,.572-2.86,1.553,1.553,0,0,1,1.716-1c4.433.429,12.012,2.86,14.443,13.013v.572A8.419,8.419,0,0,1,91.837,41ZM86.546,23.7v8.866A5.3,5.3,0,0,0,96.985,33.85C95.126,26.986,90.55,24.555,86.546,23.7Z" transform="translate(-83.4 -20.381)" fill="#00ac4e"/>
    </g>
    <g id="Grupo_561" data-name="Grupo 561" transform="translate(125.544 21.166)">
      <path id="Trazado_232" data-name="Trazado 232" d="M96.469,34.136A1.587,1.587,0,0,1,94.9,32.563V23.7a13.973,13.973,0,0,0-4.29,1.573,1.57,1.57,0,0,1-1.573-2.717A17.59,17.59,0,0,1,95.9,20.408a1.553,1.553,0,0,1,1.716,1,10.162,10.162,0,0,1,.572,2.86v8.294A1.828,1.828,0,0,1,96.469,34.136Z" transform="translate(-88.259 -20.381)" fill="#00ac4e"/>
    </g>
    <g id="Grupo_562" data-name="Grupo 562" transform="translate(121.663 18.556)">
      <path id="Trazado_233" data-name="Trazado 233" d="M87.053,24.339a1.3,1.3,0,0,1-1-.429,1.738,1.738,0,0,1-.143-2.288,7.794,7.794,0,0,1,4.719-3c.286-.143.572,0,.858,0,.286.143.429.143.715.286a6.831,6.831,0,0,1,3.575,2.288,1.663,1.663,0,0,1,.286,1.43,1.413,1.413,0,0,1-1,1l-1,.429a1.593,1.593,0,0,1-2-.858,1.221,1.221,0,0,1,0-1,6.194,6.194,0,0,0-.715-.143c-.143,0-.143,0-.286-.143a4.305,4.305,0,0,0-2.717,1.859A1.747,1.747,0,0,1,87.053,24.339Z" transform="translate(-85.545 -18.556)" fill="#00ac4e"/>
    </g>
    <g id="Grupo_563" data-name="Grupo 563" transform="translate(126.246 45.161)">
      <path id="Trazado_234" data-name="Trazado 234" d="M93.255,47.942a25.681,25.681,0,0,1-3.146-.286,2.224,2.224,0,0,1-1.144-.858,1.3,1.3,0,0,1,0-1.43c.143-.143,2-4.433,6.006-6.721a10.009,10.009,0,0,1,6.292-1.144h1a1.5,1.5,0,0,1,1.716-.143,1.548,1.548,0,0,1,.715,1.716A11.226,11.226,0,0,1,93.255,47.942ZM92.968,44.8c4.576,0,6.864-2.288,7.865-4a7.635,7.635,0,0,0-4.433.858A8.208,8.208,0,0,0,92.968,44.8Z" transform="translate(-88.75 -37.161)" fill="#00ac4e"/>
    </g>
    <g id="Grupo_564" data-name="Grupo 564" transform="translate(116.995 59.49)">
      <path id="Trazado_235" data-name="Trazado 235" d="M91.031,71.089a1.573,1.573,0,0,1-1.43-.858,109.443,109.443,0,0,1-7.293-21.164,1.543,1.543,0,0,1,3-.715,117.81,117.81,0,0,0,7.15,20.592,1.685,1.685,0,0,1-.858,2.145Z" transform="translate(-82.281 -47.181)" fill="#00ac4e"/>
    </g>
    <g id="Grupo_565" data-name="Grupo 565" transform="translate(109.298 40.355)">
      <path id="Trazado_236" data-name="Trazado 236" d="M84.337,55.536a8.145,8.145,0,0,1-7.15-4.576.86.86,0,0,1-.143-.572C75.9,39.949,81.763,35.659,85.338,33.943a1.771,1.771,0,0,1,2,.429,8.693,8.693,0,0,1,1.287,2.574L91.2,44.811a8.676,8.676,0,0,1-.286,6.292,7.458,7.458,0,0,1-4.433,4.147A8.655,8.655,0,0,1,84.337,55.536Zm-4.147-5.72a4.537,4.537,0,0,0,5.434,2.431A4.749,4.749,0,0,0,88.2,49.816a5.536,5.536,0,0,0,.143-4l-2.717-7.865c0-.143-.143-.286-.143-.572C82.478,39.234,79.475,42.952,80.19,49.816Z" transform="translate(-76.898 -33.8)" fill="#00ac4e"/>
    </g>
    <g id="Grupo_566" data-name="Grupo 566" transform="translate(106.154 43.624)">
      <path id="Trazado_237" data-name="Trazado 237" d="M79.133,49.691a1.393,1.393,0,0,1-1.43-1.144l-2.574-7.722a9.22,9.22,0,0,1-.429-2.86,1.675,1.675,0,0,1,1.287-1.573,14.56,14.56,0,0,1,6.578.143,1.543,1.543,0,1,1-.715,3,10.643,10.643,0,0,0-3.718-.286c0,.143.143.286.143.572l2.574,7.865a1.545,1.545,0,0,1-1,2Z" transform="translate(-74.7 -36.086)" fill="#00ac4e"/>
    </g>
    <g id="Grupo_567" data-name="Grupo 567" transform="translate(108.205 39.64)">
      <path id="Trazado_238" data-name="Trazado 238" d="M78.659,39.592h-.143l-1-.143a1.458,1.458,0,0,1-1.144-.715,1.39,1.39,0,0,1-.143-1.287,6.072,6.072,0,0,1,2.288-3.289,1.974,1.974,0,0,1,.572-.429c.286-.286.572-.286,1-.429a7.412,7.412,0,0,1,5,1.43A1.547,1.547,0,0,1,83.378,37.3c-1.43-.858-1.573-1-2.717-1l-.143.143-.429.429a1.112,1.112,0,0,1,.286,1.144A1.706,1.706,0,0,1,78.659,39.592Z" transform="translate(-76.134 -33.3)" fill="#00ac4e"/>
    </g>
    <g id="Grupo_568" data-name="Grupo 568" transform="translate(107.435 67.62)">
      <path id="Trazado_239" data-name="Trazado 239" d="M84.9,62.066a8.326,8.326,0,0,1-2.717-.429,11.983,11.983,0,0,1-6.435-5.291,1.8,1.8,0,0,1,.286-1.859,1.614,1.614,0,0,1,1.573-.429,1.51,1.51,0,0,0,.715-.286,9.927,9.927,0,0,1,5.863-.715,15.98,15.98,0,0,1,7.293,4.576,1.459,1.459,0,0,1,.286,1.287,3.114,3.114,0,0,1-.715,1.144A12,12,0,0,1,84.9,62.066Zm-5-5.434a8.519,8.519,0,0,0,3.146,2,7.3,7.3,0,0,0,4.576-.286,10.705,10.705,0,0,0-4-2.145A6.109,6.109,0,0,0,79.892,56.632Z" transform="translate(-75.596 -52.867)" fill="#00ac4e"/>
    </g>
    <g id="Grupo_569" data-name="Grupo 569" transform="translate(34.499 86.934)">
      <path id="Trazado_240" data-name="Trazado 240" d="M31.039,87a4.044,4.044,0,0,1-3.432-2.145,3.361,3.361,0,0,1-1.43-1.144,5.079,5.079,0,0,1-.572-1.287,3.262,3.262,0,0,1-.858-1.716,2.788,2.788,0,0,1,.143-1.144,2.418,2.418,0,0,1-.143-2,2.3,2.3,0,0,1,.572-1,2.618,2.618,0,0,1,1.859-2.431c.858-.286,1.573.286,2.288.572a4.473,4.473,0,0,0,1.43.715,12.942,12.942,0,0,1-1.716-3.146c-1.144-3.289-1.43-4.433-.572-5.434a1.833,1.833,0,0,1,2-.286h0a10,10,0,0,0,1.573.572,9.115,9.115,0,0,0,1.287.286c3.289.858,5.863,1.573,6.864,3a3.126,3.126,0,0,0,.429.715c.715,1.144.858,1.287,1.287,1.287h0c.286,0,.715-.429,1.144-.715a5.167,5.167,0,0,1,3.432-1.573,3.178,3.178,0,0,1,3.289,1.859l.143.143c.858.572,1.573,1.144,1.573,2.145a1.5,1.5,0,0,1-.715,1.287,2.071,2.071,0,0,1-1.573.143c-.286,0-.715-.143-1,0a11.341,11.341,0,0,0-.572,1.287c-.715,1.859-1.43,4-3.146,5.148-2.145,1.43-4.576,1.716-7.579,1A6.193,6.193,0,0,1,36.33,83c-1.716-.429-1.859-.429-2.288.143s-.715,1.144-1,1.573C32.9,85.86,32.326,87,31.039,87Zm-2.145-5a.5.5,0,0,1,.286.143,1.521,1.521,0,0,1,1.287,1.43l.143.143v-.143A20.988,20.988,0,0,1,31.9,81.427c1.716-2.145,3.861-1.716,5.577-1.287.286,0,.429.143.715.143a6.8,6.8,0,0,0,5.148-.572c.858-.572,1.573-2.288,2-3.575A13.053,13.053,0,0,1,46.483,73.7c-.143.143-.429.286-.715.572a5.127,5.127,0,0,1-3.289,1.573c-2.431,0-3.289-1.716-4-2.86a3.126,3.126,0,0,1-.429-.715c-.572-.572-3.861-1.287-4.862-1.573-.429-.143-.858-.143-1.144-.286.143.286.143.572.286.858a7.763,7.763,0,0,0,3.718,4.29,1.374,1.374,0,0,1,1,1.287,1.822,1.822,0,0,1-.715,1.573,4.99,4.99,0,0,1-2.717.715,9.827,9.827,0,0,1-5.148-1.287c-.143.286-.286.429-.429.715l.143.143a1.5,1.5,0,0,1,0,1.859A1.253,1.253,0,0,1,28.894,82Z" transform="translate(-24.591 -66.373)" fill="#00ac4e"/>
    </g>
    <g id="Grupo_570" data-name="Grupo 570" transform="translate(75.552 89.833)">
      <path id="Trazado_241" data-name="Trazado 241" d="M113.646,78.267H54.873A1.587,1.587,0,0,1,53.3,76.694V69.973A1.587,1.587,0,0,1,54.873,68.4h54.769a1.5,1.5,0,0,1,1.287.715l4,6.721a1.549,1.549,0,0,1,0,1.573A1.251,1.251,0,0,1,113.646,78.267Zm-57.2-3.146h54.483l-2.145-3.575H56.446Z" transform="translate(-53.3 -68.4)" fill="#00ac4e"/>
    </g>
    <g id="Grupo_571" data-name="Grupo 571" transform="translate(75.552 103.99)">
      <path id="Trazado_242" data-name="Trazado 242" d="M116.792,81.446H54.873a1.573,1.573,0,1,1,0-3.146h61.776a1.587,1.587,0,0,1,1.573,1.573A1.47,1.47,0,0,1,116.792,81.446Z" transform="translate(-53.3 -78.3)" fill="#00ac4e"/>
    </g>
    <g id="Grupo_572" data-name="Grupo 572" transform="translate(24.072 111.283)">
      <path id="Trazado_243" data-name="Trazado 243" d="M138.421,86.546H18.873a1.573,1.573,0,1,1,0-3.146H138.421a1.573,1.573,0,1,1,0,3.146Z" transform="translate(-17.3 -83.4)" fill="#00ac4e"/>
    </g>
    <g id="Grupo_573" data-name="Grupo 573" transform="translate(19.639 118.719)">
      <path id="Trazado_244" data-name="Trazado 244" d="M144.33,91.746H15.773a1.573,1.573,0,1,1,0-3.146H144.33a1.573,1.573,0,0,1,0,3.146Z" transform="translate(-14.2 -88.6)" fill="#00ac4e"/>
    </g>
    <g id="Grupo_574" data-name="Grupo 574" transform="translate(1.621 130.159)">
      <path id="Trazado_245" data-name="Trazado 245" d="M167.623,104.465H3.173A1.587,1.587,0,0,1,1.6,102.892V98.173a1.573,1.573,0,1,1,3.146,0v3.146h161.3V98.173a1.573,1.573,0,0,1,3.146,0v4.719A1.587,1.587,0,0,1,167.623,104.465Z" transform="translate(-1.6 -96.6)" fill="#00ac4e"/>
    </g>
  </g>
</svg>
