<svg id="Grupo_61" data-name="Grupo 61" xmlns="http://www.w3.org/2000/svg" width="99.569" height="112.948" viewBox="0 0 99.569 112.948">
  <g id="Grupo_36" data-name="Grupo 36" transform="translate(20.225 17.113)">
    <g id="Grupo_5" data-name="Grupo 5" transform="translate(0 47.96)">
      <path id="Trazado_6" data-name="Trazado 6" d="M122.461,315.211h-56.8c-.639,0-1.158.783-1.158,1.749s.519,1.749,1.158,1.749h56.8c.639,0,1.158-.783,1.158-1.749S123.1,315.211,122.461,315.211Zm0,0" transform="translate(-64.5 -315.211)" fill="#00ac4e" stroke="#00ac4e" stroke-width="1"/>
      <path id="Trazado_7" data-name="Trazado 7" d="M122.461,349.211h-56.8c-.639,0-1.158.784-1.158,1.749s.519,1.749,1.158,1.749h56.8c.639,0,1.158-.783,1.158-1.749S123.1,349.211,122.461,349.211Zm0,0" transform="translate(-64.5 -341.281)" fill="#00ac4e" stroke="#00ac4e" stroke-width="1"/>
      <path id="Trazado_8" data-name="Trazado 8" d="M122.461,383.211h-56.8c-.639,0-1.158.784-1.158,1.749s.519,1.749,1.158,1.749h56.8c.639,0,1.158-.783,1.158-1.749S123.1,383.211,122.461,383.211Zm0,0" transform="translate(-64.5 -367.352)" fill="#00ac4e" stroke="#00ac4e" stroke-width="1"/>
      <path id="Trazado_9" data-name="Trazado 9" d="M66.249,432.709H86.773a1.749,1.749,0,1,0,0-3.5H66.249a1.749,1.749,0,0,0,0,3.5Zm0,0" transform="translate(-64.5 -402.623)" fill="#00ac4e" stroke="#00ac4e" stroke-width="1"/>
      <path id="Trazado_10" data-name="Trazado 10" d="M366.773,429.211H346.249a1.749,1.749,0,0,0,0,3.5h20.524a1.749,1.749,0,1,0,0-3.5Zm0,0" transform="translate(-309.403 -402.623)" fill="#00ac4e" stroke="#00ac4e" stroke-width="1"/>
    </g>
    <path id="Trazado_12" data-name="Trazado 12" d="M51.252,29.527A14.142,14.142,0,0,0,37.175,43.7v7.628a6.757,6.757,0,0,0,4.969,6.517,10.294,10.294,0,0,0-.917,4.316.951.951,0,0,0,.951.951H60.325a.951.951,0,0,0,.951-.951,10.3,10.3,0,0,0-.917-4.316,6.757,6.757,0,0,0,4.969-6.517V43.7A14.141,14.141,0,0,0,51.252,29.527Zm4.2,23.958a9.593,9.593,0,0,1-8.408,0,9.779,9.779,0,0,1-5.141-11.075c1.343-.386,4.773-1.551,6.843-3.845A22.247,22.247,0,0,0,60.636,42.57a9.778,9.778,0,0,1-5.18,10.915ZM43.179,61.21a8.3,8.3,0,0,1,1.245-3.574,8.911,8.911,0,0,1,2.1-2.291l.122.054a11.479,11.479,0,0,0,9.324-.054,8.914,8.914,0,0,1,2.1,2.292,8.273,8.273,0,0,1,1.245,3.574Zm20.247-9.882a4.853,4.853,0,0,1-4.067,4.792,10.81,10.81,0,0,0-1.608-1.783,11.688,11.688,0,0,0,4.532-12.981.952.952,0,0,0-.911-.676,20.256,20.256,0,0,1-11.519-3.665,1.894,1.894,0,0,0-2.509.267c-2.106,2.344-6.2,3.368-6.419,3.421a.951.951,0,0,0-.7.654,11.691,11.691,0,0,0,4.532,12.981,10.832,10.832,0,0,0-1.608,1.783,4.854,4.854,0,0,1-4.067-4.792V43.7a12.175,12.175,0,1,1,24.349,0Zm0,0" transform="translate(-35.769 -29.527)" fill="#00ac4e" stroke="#00ac4e" stroke-width="1"/>
    <g id="Grupo_7" data-name="Grupo 7" transform="translate(38.116 0.09)">
      <path id="Trazado_17" data-name="Trazado 17" d="M211,150h20.99v7H211Zm0,0" transform="translate(-211 -143.773)" fill="#00ac4e" stroke="#707070" stroke-width="1"/>
      <path id="Trazado_18" data-name="Trazado 18" d="M0,0H33.863V7H0ZM0,0" transform="translate(6.997 33.863) rotate(-90)" fill="#00ac4e" stroke="#707070" stroke-width="1"/>
    </g>
  </g>
  <g id="Rectángulo_5" data-name="Rectángulo 5" fill="none" stroke="#00ac4e" stroke-width="10">
    <rect width="99.569" height="112.948" rx="10" stroke="none"/>
    <rect x="5" y="5" width="89.569" height="102.948" rx="5" fill="none"/>
  </g>
</svg>
