<svg xmlns="http://www.w3.org/2000/svg" xmlns:xlink="http://www.w3.org/1999/xlink" width="944.063" height="1484" viewBox="0 0 944.063 1484">
  <defs>
    <clipPath id="clip-path">
      <rect id="Rectángulo_4" data-name="Rectángulo 4" width="944.062" height="1484" fill="none"/>
    </clipPath>
  </defs>
  <g id="Grupo_4" data-name="Grupo 4" transform="translate(0 -54.538)" opacity="0.5">
    <g id="Grupo_3" data-name="Grupo 3" transform="translate(0 54.538)" clip-path="url(#clip-path)">
      <path id="Trazado_19" data-name="Trazado 19" d="M1338.221,207.771c0-3.1-.249-6.189-.249-9.245l.247-.307-.008-.008C981.753,224.476,677.826,442.27,529.2,748.875,380.848,442.8,77.479,226.235-279.654,200.564l.013.01-.016-.013c-.132,2.461-.335,4.758-.335,7.21,0,407.02,302.129,744.692,693.912,800.752a783.454,783.454,0,0,1,17.82,166.109v98.725l.042.034H626.675v-98.759a784.009,784.009,0,0,1,17.814-166.153c391.669-56.169,693.732-393.773,693.732-800.707M-29.711,460.071A790.483,790.483,0,0,1,329.647,788.293C169.917,732.708,39.9,612.481-29.711,460.071m758.276,328.45a790.011,790.011,0,0,1,360.091-328.749l.546-.572C1019.97,612.806,889.277,733.137,728.565,788.521" transform="translate(-447.532 210.612)" fill="#e6e7e8"/>
      <path id="Trazado_20" data-name="Trazado 20" d="M220.356,59.866c-169.341,0-307.2,137.745-307.2,307.234,0,169.393,137.857,307.131,307.2,307.131,169.4,0,307.284-137.737,307.284-307.131,0-169.489-137.88-307.234-307.284-307.234m0,419.544c-61.776,0-112.265-50.51-112.265-112.31,0-62,50.489-112.385,112.265-112.385A112.522,112.522,0,0,1,332.793,367.1c0,61.8-50.45,112.31-112.437,112.31" transform="translate(-138.806 -10.517)" fill="#e6e7e8"/>
    </g>
  </g>
</svg>
