<svg xmlns="http://www.w3.org/2000/svg" width="69.5" height="69.501" viewBox="0 0 69.5 69.501">
  <g id="magnifier" transform="translate(-0.001)">
    <g id="Grupo_190" data-name="Grupo 190" transform="translate(0.001)">
      <path id="Trazado_78" data-name="Trazado 78" d="M321.395,312.189l-15.944-15.946a30.691,30.691,0,0,1-9.215,9.213L312.182,321.4a6.515,6.515,0,0,0,9.213-9.213Z" transform="translate(-253.804 -253.81)" fill="#f5841f"/>
      <path id="Trazado_79" data-name="Trazado 79" d="M52.126,26.063A26.063,26.063,0,1,0,26.064,52.125,26.064,26.064,0,0,0,52.126,26.063ZM26.064,45.609A19.546,19.546,0,1,1,45.611,26.063,19.567,19.567,0,0,1,26.064,45.609Z" transform="translate(-0.001)" fill="#f5841f"/>
      <path id="Trazado_80" data-name="Trazado 80" d="M75.817,91.019H80.16A10.872,10.872,0,0,1,91.02,80.16V75.816A15.222,15.222,0,0,0,75.817,91.019Z" transform="translate(-64.957 -64.956)" fill="#f5841f"/>
    </g>
  </g>
</svg>
