<svg xmlns="http://www.w3.org/2000/svg" xmlns:xlink="http://www.w3.org/1999/xlink" width="327.2" height="397.21" viewBox="0 0 327.2 397.21">
  <defs>
    <filter id="Trazado_362" x="0" y="0" width="327.2" height="397.21" filterUnits="userSpaceOnUse">
      <feOffset dy="40" input="SourceAlpha"/>
      <feGaussianBlur stdDeviation="14" result="blur"/>
      <feFlood flood-opacity="0.161"/>
      <feComposite operator="in" in2="blur"/>
      <feComposite in="SourceGraphic"/>
    </filter>
  </defs>
  <g id="Icono_Placer_holder_" data-name="Icono Placer holder " transform="translate(-1495.56 12906.35)">
    <g transform="matrix(1, 0, 0, 1, 1495.56, -12906.35)" filter="url(#Trazado_362)">
      <path id="Trazado_362-2" data-name="Trazado 362" d="M329.76,198.26a119.6,119.6,0,1,0-202.43,86.22c.46.49.91.97,1.43,1.43,82.71,73.72,82.31,99.4,83.63,100.29,0,0,1.4-33.97,65.45-88.79,0,0-.05-.19-.14-.47a119.41,119.41,0,0,0,52.06-98.68" transform="translate(-46.56 -74.65)" fill="#0baf56" stroke="#fff" stroke-width="4" fill-rule="evenodd"/>
    </g>
    <g id="Sepultura_Mesa_de_trabajo_1" data-name="Sepultura_Mesa de trabajo 1" transform="translate(1571 -12857.488)">
      <g id="Grupo_558" data-name="Grupo 558" transform="translate(0 65.777)">
        <path id="Trazado_229" data-name="Trazado 229" d="M176.6,117.36H3.283a1.658,1.658,0,0,1-1.507-.9,1.633,1.633,0,0,1,0-1.658L32.22,62.954a1.8,1.8,0,0,1,1.356-.754H146.158a1.583,1.583,0,0,1,1.356.754L177.958,114.8a1.633,1.633,0,0,1,0,1.658A1.318,1.318,0,0,1,176.6,117.36ZM6.147,114.045H173.738L145.253,65.516H34.631Z" transform="translate(-1.55 -62.2)" fill="#fff"/>
      </g>
      <g id="Grupo_559" data-name="Grupo 559" transform="translate(129.212 22.048)">
        <path id="Trazado_230" data-name="Trazado 230" d="M88.966,79.476h-.3a1.557,1.557,0,0,1-1.356-1.809c3.617-25.621,1.507-42.5,1.507-42.651a1.665,1.665,0,1,1,3.316-.3c.151.754,2.11,17.483-1.507,43.556A1.669,1.669,0,0,1,88.966,79.476Z" transform="translate(-87.285 -33.185)" fill="#fff"/>
      </g>
      <g id="Grupo_560" data-name="Grupo 560" transform="translate(123.357 2.751)">
        <path id="Trazado_231" data-name="Trazado 231" d="M92.292,42.112A8.908,8.908,0,0,1,83.4,33.22V24.479a6.747,6.747,0,0,1,.6-3.014,1.637,1.637,0,0,1,1.809-1.055c4.672.452,12.66,3.014,15.222,13.715v.6A8.873,8.873,0,0,1,92.292,42.112ZM86.716,23.876V33.22a5.586,5.586,0,0,0,11,1.356C95.758,27.342,90.936,24.78,86.716,23.876Z" transform="translate(-83.4 -20.381)" fill="#fff"/>
      </g>
      <g id="Grupo_561" data-name="Grupo 561" transform="translate(130.68 2.751)">
        <path id="Trazado_232" data-name="Trazado 232" d="M96.911,34.878a1.673,1.673,0,0,1-1.658-1.658V23.876a14.726,14.726,0,0,0-4.521,1.658,1.654,1.654,0,1,1-1.658-2.864,18.539,18.539,0,0,1,7.234-2.261,1.637,1.637,0,0,1,1.809,1.055,10.71,10.71,0,0,1,.6,3.014V33.22A1.927,1.927,0,0,1,96.911,34.878Z" transform="translate(-88.259 -20.381)" fill="#fff"/>
      </g>
      <g id="Grupo_562" data-name="Grupo 562" transform="translate(126.591 0)">
        <path id="Trazado_233" data-name="Trazado 233" d="M87.135,24.651A1.368,1.368,0,0,1,86.08,24.2a1.831,1.831,0,0,1-.151-2.411A8.214,8.214,0,0,1,90.9,18.623c.3-.151.6,0,.9,0,.3.151.452.151.754.3a7.2,7.2,0,0,1,3.768,2.411,1.752,1.752,0,0,1,.3,1.507A1.489,1.489,0,0,1,95.575,23.9l-1.055.452a1.679,1.679,0,0,1-2.11-.9,1.287,1.287,0,0,1,0-1.055,6.531,6.531,0,0,0-.754-.151c-.151,0-.151,0-.3-.151-1.507.452-1.658.6-2.864,1.959A1.841,1.841,0,0,1,87.135,24.651Z" transform="translate(-85.545 -18.556)" fill="#fff"/>
      </g>
      <g id="Grupo_563" data-name="Grupo 563" transform="translate(131.42 28.04)">
        <path id="Trazado_234" data-name="Trazado 234" d="M93.5,48.523a27.065,27.065,0,0,1-3.316-.3,2.344,2.344,0,0,1-1.206-.9,1.369,1.369,0,0,1,0-1.507c.151-.151,2.11-4.672,6.33-7.083a10.549,10.549,0,0,1,6.631-1.206h1.055a1.579,1.579,0,0,1,1.808-.151,1.632,1.632,0,0,1,.754,1.809A11.832,11.832,0,0,1,93.5,48.523Zm-.3-3.316c4.823,0,7.234-2.411,8.289-4.22a8.047,8.047,0,0,0-4.672.9A8.651,8.651,0,0,0,93.2,45.208Z" transform="translate(-88.75 -37.161)" fill="#fff"/>
      </g>
      <g id="Grupo_564" data-name="Grupo 564" transform="translate(121.671 43.142)">
        <path id="Trazado_235" data-name="Trazado 235" d="M91.5,72.378a1.658,1.658,0,0,1-1.507-.9A115.347,115.347,0,0,1,82.31,49.169a1.627,1.627,0,0,1,3.165-.754,124.165,124.165,0,0,0,7.536,21.7,1.776,1.776,0,0,1-.9,2.261Z" transform="translate(-82.281 -47.181)" fill="#fff"/>
      </g>
      <g id="Grupo_565" data-name="Grupo 565" transform="translate(113.558 22.975)">
        <path id="Trazado_236" data-name="Trazado 236" d="M84.738,56.708A8.584,8.584,0,0,1,77.2,51.885a.906.906,0,0,1-.151-.6c-1.206-11,4.973-15.523,8.741-17.332a1.866,1.866,0,0,1,2.11.452,9.162,9.162,0,0,1,1.356,2.713L91.972,45.4a9.144,9.144,0,0,1-.3,6.631A7.86,7.86,0,0,1,87,56.407,9.121,9.121,0,0,1,84.738,56.708ZM80.367,50.68a4.782,4.782,0,0,0,5.727,2.562,5,5,0,0,0,2.713-2.562,5.835,5.835,0,0,0,.151-4.22l-2.864-8.289c0-.151-.151-.3-.151-.6C82.779,39.527,79.614,43.446,80.367,50.68Z" transform="translate(-76.898 -33.8)" fill="#fff"/>
      </g>
      <g id="Grupo_566" data-name="Grupo 566" transform="translate(110.245 26.421)">
        <path id="Trazado_237" data-name="Trazado 237" d="M79.372,50.425a1.468,1.468,0,0,1-1.507-1.206l-2.713-8.138a9.718,9.718,0,0,1-.452-3.014,1.766,1.766,0,0,1,1.356-1.658,15.345,15.345,0,0,1,6.933.151,1.627,1.627,0,0,1-.754,3.165,11.216,11.216,0,0,0-3.919-.3c0,.151.151.3.151.6l2.713,8.289a1.629,1.629,0,0,1-1.055,2.11Z" transform="translate(-74.7 -36.086)" fill="#fff"/>
      </g>
      <g id="Grupo_567" data-name="Grupo 567" transform="translate(112.407 22.222)">
        <path id="Trazado_238" data-name="Trazado 238" d="M78.8,39.931h-.151l-1.055-.151a1.537,1.537,0,0,1-1.206-.754,1.465,1.465,0,0,1-.151-1.356A6.4,6.4,0,0,1,78.645,34.2a2.08,2.08,0,0,1,.6-.452c.3-.3.6-.3,1.055-.452a7.812,7.812,0,0,1,5.275,1.507,1.63,1.63,0,1,1-1.809,2.713c-1.507-.9-1.658-1.055-2.864-1.055l-.151.151-.452.452a1.172,1.172,0,0,1,.3,1.206A1.8,1.8,0,0,1,78.8,39.931Z" transform="translate(-76.134 -33.3)" fill="#fff"/>
      </g>
      <g id="Grupo_568" data-name="Grupo 568" transform="translate(111.596 51.711)">
        <path id="Trazado_239" data-name="Trazado 239" d="M85.4,62.562a8.775,8.775,0,0,1-2.864-.452,12.63,12.63,0,0,1-6.782-5.576,1.9,1.9,0,0,1,.3-1.959,1.7,1.7,0,0,1,1.658-.452,1.591,1.591,0,0,0,.754-.3,10.462,10.462,0,0,1,6.179-.754,16.842,16.842,0,0,1,7.686,4.823,1.537,1.537,0,0,1,.3,1.356,3.281,3.281,0,0,1-.754,1.206A12.642,12.642,0,0,1,85.4,62.562Zm-5.275-5.727a8.978,8.978,0,0,0,3.316,2.11,7.7,7.7,0,0,0,4.823-.3,11.282,11.282,0,0,0-4.22-2.261A6.439,6.439,0,0,0,80.123,56.835Z" transform="translate(-75.596 -52.867)" fill="#fff"/>
      </g>
      <g id="Grupo_569" data-name="Grupo 569" transform="translate(34.725 72.067)">
        <path id="Trazado_240" data-name="Trazado 240" d="M31.387,88.116a4.262,4.262,0,0,1-3.617-2.261,3.542,3.542,0,0,1-1.507-1.206,5.353,5.353,0,0,1-.6-1.356,3.438,3.438,0,0,1-.9-1.809,2.938,2.938,0,0,1,.151-1.206,2.549,2.549,0,0,1-.151-2.11,2.429,2.429,0,0,1,.6-1.055,2.759,2.759,0,0,1,1.959-2.562c.9-.3,1.658.3,2.411.6a4.714,4.714,0,0,0,1.507.754,13.64,13.64,0,0,1-1.809-3.316c-1.206-3.466-1.507-4.672-.6-5.727a1.932,1.932,0,0,1,2.11-.3h0a10.539,10.539,0,0,0,1.658.6,9.6,9.6,0,0,0,1.356.3c3.466.9,6.179,1.658,7.234,3.165a3.294,3.294,0,0,0,.452.754c.754,1.206.9,1.356,1.356,1.356h0c.3,0,.754-.452,1.206-.754a5.446,5.446,0,0,1,3.617-1.658,3.35,3.35,0,0,1,3.466,1.959l.151.151c.9.6,1.658,1.206,1.658,2.261a1.583,1.583,0,0,1-.754,1.356,2.183,2.183,0,0,1-1.658.151c-.3,0-.754-.151-1.055,0a11.953,11.953,0,0,0-.6,1.356c-.754,1.959-1.507,4.22-3.316,5.426-2.261,1.507-4.823,1.809-7.988,1.055a6.528,6.528,0,0,1-.754-.151c-1.809-.452-1.959-.452-2.411.151S33.8,85.253,33.5,85.7C33.346,86.91,32.743,88.116,31.387,88.116Zm-2.261-5.275a.526.526,0,0,1,.3.151A1.6,1.6,0,0,1,30.784,84.5l.151.151V84.5a22.121,22.121,0,0,1,1.356-2.261c1.809-2.261,4.069-1.809,5.878-1.356.3,0,.452.151.754.151a7.165,7.165,0,0,0,5.426-.6c.9-.6,1.658-2.411,2.11-3.768A13.757,13.757,0,0,1,47.663,74.1c-.151.151-.452.3-.754.6a5.4,5.4,0,0,1-3.466,1.658c-2.562,0-3.466-1.809-4.22-3.014a3.3,3.3,0,0,1-.452-.754c-.6-.6-4.069-1.356-5.124-1.658-.452-.151-.9-.151-1.206-.3.151.3.151.6.3.9a8.182,8.182,0,0,0,3.918,4.521,1.448,1.448,0,0,1,1.055,1.356,1.92,1.92,0,0,1-.754,1.658,5.259,5.259,0,0,1-2.864.754,10.357,10.357,0,0,1-5.426-1.356c-.151.3-.3.452-.452.754l.151.151a1.585,1.585,0,0,1,0,1.959A1.321,1.321,0,0,1,29.126,82.841Z" transform="translate(-24.591 -66.373)" fill="#fff"/>
      </g>
      <g id="Grupo_570" data-name="Grupo 570" transform="translate(77.993 75.121)">
        <path id="Trazado_241" data-name="Trazado 241" d="M116.9,78.8H54.958A1.673,1.673,0,0,1,53.3,77.141V70.058A1.673,1.673,0,0,1,54.958,68.4H112.68a1.583,1.583,0,0,1,1.356.754l4.22,7.083a1.633,1.633,0,0,1,0,1.658A1.318,1.318,0,0,1,116.9,78.8ZM56.616,75.483h57.421l-2.261-3.768H56.616Z" transform="translate(-53.3 -68.4)" fill="#fff"/>
      </g>
      <g id="Grupo_571" data-name="Grupo 571" transform="translate(77.993 90.042)">
        <path id="Trazado_242" data-name="Trazado 242" d="M120.216,81.616H54.958a1.658,1.658,0,1,1,0-3.316h65.107a1.673,1.673,0,0,1,1.658,1.658A1.549,1.549,0,0,1,120.216,81.616Z" transform="translate(-53.3 -78.3)" fill="#fff"/>
      </g>
      <g id="Grupo_572" data-name="Grupo 572" transform="translate(23.737 97.728)">
        <path id="Trazado_243" data-name="Trazado 243" d="M144.953,86.716H18.958a1.658,1.658,0,1,1,0-3.316H144.953a1.658,1.658,0,1,1,0,3.316Z" transform="translate(-17.3 -83.4)" fill="#fff"/>
      </g>
      <g id="Grupo_573" data-name="Grupo 573" transform="translate(19.065 105.565)">
        <path id="Trazado_244" data-name="Trazado 244" d="M151.347,91.916H15.858a1.658,1.658,0,1,1,0-3.316h135.49a1.658,1.658,0,1,1,0,3.316Z" transform="translate(-14.2 -88.6)" fill="#fff"/>
      </g>
      <g id="Grupo_574" data-name="Grupo 574" transform="translate(0.075 117.622)">
        <path id="Trazado_245" data-name="Trazado 245" d="M176.576,104.889H3.258A1.673,1.673,0,0,1,1.6,103.231V98.258a1.658,1.658,0,0,1,3.316,0v3.316h170V98.258a1.658,1.658,0,0,1,3.316,0v4.974A1.673,1.673,0,0,1,176.576,104.889Z" transform="translate(-1.6 -96.6)" fill="#fff"/>
      </g>
    </g>
  </g>
</svg>
