<svg xmlns="http://www.w3.org/2000/svg" width="267.581" height="329.396" viewBox="0 0 267.581 329.396">
  <g id="Grupo_335" data-name="Grupo 335" transform="translate(-103.016 -1063.341)">
    <g id="Grupo_329" data-name="Grupo 329" transform="translate(261.124 1283.264)">
      <path id="Trazado_138" data-name="Trazado 138" d="M121.146,1180.544a7.273,7.273,0,0,1-7.3-7.3v-87.578a7.282,7.282,0,0,1,7.3-7.3h87.578a7.3,7.3,0,1,1,0,14.6h-80.28v80.28a7.3,7.3,0,0,1-7.3,7.3Z" transform="translate(-113.848 -1078.368)" fill="#f5841f"/>
    </g>
    <g id="Grupo_330" data-name="Grupo 330" transform="translate(103.016 1063.341)">
      <path id="Trazado_139" data-name="Trazado 139" d="M268.422,1392.737H117.612a14.6,14.6,0,0,1-14.6-14.622V1077.962a14.6,14.6,0,0,1,14.6-14.621H356a14.605,14.605,0,0,1,14.6,14.621v212.424a14.631,14.631,0,0,1-4.277,10.337l-87.578,87.73a14.572,14.572,0,0,1-10.32,4.283Zm-136.214-29.243H262.38l79.025-79.162V1092.584h-209.2v270.91Z" transform="translate(-103.016 -1063.341)" fill="#f5841f"/>
    </g>
    <g id="Grupo_331" data-name="Grupo 331" transform="translate(159.548 1126.118)">
      <path id="Trazado_140" data-name="Trazado 140" d="M199.941,1082.231H114.187a7.3,7.3,0,0,1,0-14.6h85.754a7.3,7.3,0,0,1,0,14.6Z" transform="translate(-106.889 -1067.634)" fill="#f5841f"/>
    </g>
    <g id="Grupo_332" data-name="Grupo 332" transform="translate(159.548 1161.461)">
      <path id="Trazado_141" data-name="Trazado 141" d="M256.5,1084.647H114.187a7.3,7.3,0,1,1,0-14.6H256.5a7.3,7.3,0,1,1,0,14.6Z" transform="translate(-106.889 -1070.051)" fill="#f5841f"/>
    </g>
    <g id="Grupo_333" data-name="Grupo 333" transform="translate(159.548 1196.804)">
      <path id="Trazado_142" data-name="Trazado 142" d="M256.5,1087.064H114.187a7.3,7.3,0,0,1,0-14.6H256.5a7.3,7.3,0,1,1,0,14.6Z" transform="translate(-106.889 -1072.468)" fill="#f5841f"/>
    </g>
    <g id="Grupo_334" data-name="Grupo 334" transform="translate(159.548 1232.147)">
      <path id="Trazado_143" data-name="Trazado 143" d="M173.8,1089.481H114.187a7.3,7.3,0,0,1,0-14.6H173.8a7.3,7.3,0,0,1,0,14.6Z" transform="translate(-106.889 -1074.885)" fill="#f5841f"/>
    </g>
  </g>
</svg>
